# xmcd
#
# Track frame offsets: 
#        150
#        20308
#        38235
#        54320
#        71474
#        86936
#        102338
#        120325
#        141447
#        159210
#        170840
#        186561
#        204192
#        218991
#        237918
#        254866
#        272007
#        291049
#        308539
#        327147
#
# Disc length: 4600 seconds
#
# Revision: 1
# Processed by: cddbd v1.5.2PL0 Copyright (c) Steve Scherf et al.
# Submitted via: ExactAudioCopy v1.0b1
#
DISCID=2511f614
DTITLE=Gladys Knight and The Pips - Greatest Hits 1973-1985
DYEAR=1973
DGENRE=R&B
TTITLE0=Where Peaceful Waters Flow (single version)
TTITLE1=Midnight Train To Georgia (single version)
TTITLE2=I've Got To Use My Imagination (single version)
TTITLE3=Best Thing That Ever Happened To Me (single version)
TTITLE4=On And On (single version)
TTITLE5=I Feel A Song (In My Heart) (single version)
TTITLE6=Love Finds Its Own Way (single version)
TTITLE7=The Way We Were - Try To Remember (single version)
TTITLE8=Money (single version)
TTITLE9=Part Time Love (single version)
TTITLE10=Make Yours A Happy Home (single version)
TTITLE11=So Sad The Song (single version)
TTITLE12=Baby Don't Change Your Mind (single version)
TTITLE13=Sorry Doesn't Always Make It Right (single version)
TTITLE14=It's A Better Than Good Time (single version)
TTITLE15=Landlord (single version)
TTITLE16=I Will Fight (single version)
TTITLE17=Save The Overtime (For Me) (single version)
TTITLE18=You're Number One (In My Book) (single version)
TTITLE19=My Time (single version)
EXTD=
EXTT0=
EXTT1=
EXTT2=
EXTT3=
EXTT4=
EXTT5=
EXTT6=
EXTT7=
EXTT8=
EXTT9=
EXTT10=
EXTT11=
EXTT12=
EXTT13=
EXTT14=
EXTT15=
EXTT16=
EXTT17=
EXTT18=
EXTT19=
PLAYORDER=
